# xmcd
#
# Track frame offsets:
#	150
#	24742
#	45655
#	66830
#	89285
#	114527
#
# Disc length: 1841 seconds
#
# Revision: 1
# Processed by: cddbd v1.4PL0 Copyright (c) Steve Scherf et al.
# Submitted via: audiograbber 1.82.01
#
DISCID=4a072f06
DTITLE=Wissam El Amir - Elak Ma3na W Ma Ma3na
DYEAR=1900
DGENRE=
TTITLE0=Elak Ma3na W Ma Ma3na
TTITLE1=Bawmar
TTITLE2=Weyli Weyli
TTITLE3=Khalili Mazajak
TTITLE4=La El Mjawaz Radi 
TTITLE5=Chou El Ossa
EXTD=
EXTT0=
EXTT1=
EXTT2=
EXTT3=
EXTT4=
EXTT5=
PLAYORDER=
